<?xml version="1.0" encoding="UTF-8"?>
<svg id="OBJECTS" xmlns="http://www.w3.org/2000/svg" viewBox="0 0 3604.11 1265.78">
  <defs>
    <style>
      .cls-1 {
        fill: #c026d3;
      }

      .cls-1, .cls-2, .cls-3 {
        stroke-width: 0px;
      }

      .cls-2 {
        fill: #a78bfa;
      }

      .cls-3 {
        fill: #fff;
      }
    </style>
  </defs>
  <g>
    <path class="cls-1" d="m815.53,527.69c28.83-48.01,70.68-87.27,120.62-112.9v-55.79h58.27l-118.61-205.44-118.61,205.44h58.33v168.69Z"/>
    <path class="cls-2" d="m1072.93,423.96c-50.24,0-97.1,14.41-136.78,39.32-68.69,43.18-115.68,117.73-120.62,203.43-.36,5.01-.48,10.07-.48,15.14v2.29c-2.17,29.85-13.39,57.17-30.94,79.31-26.66,33.89-68.09,55.67-114.47,55.67-80.45,0-145.89-65.44-145.89-145.89v-255.17h-120.62v255.17c0,146.92,119.54,266.51,266.51,266.51,53.63,0,103.59-15.95,145.43-43.3v249.37h120.62v-245.72c39.77,25.11,86.85,39.65,137.25,39.65,142.21,0,257.89-115.68,257.89-257.89s-115.68-257.89-257.89-257.89Zm0,395.16c-74,0-134.49-58.86-137.15-132.2,0-.06-.06-.06,0-.12.24-4.52.36-9.05.36-13.57v-2.29c5.55-70.62,64.77-126.35,136.78-126.35,75.69,0,137.27,61.58,137.27,137.27s-61.58,137.27-137.27,137.27Z"/>
  </g>
  <g>
    <path class="cls-3" d="m1390.76,534.69c-12.86,0-23.28-3.67-31.23-11.02-7.97-7.35-11.94-16.53-11.94-27.56,0-12.24,3.98-22.05,11.94-29.39,7.95-7.35,18.37-11.02,31.23-11.02h212.19c12.86,0,23.26,3.67,31.23,11.02,7.95,7.35,11.94,17.15,11.94,29.39,0,11.02-3.99,20.21-11.94,27.56-7.97,7.35-18.37,11.02-31.23,11.02h-212.19Zm203.92,405.08c-30.63,0-58.18-7.81-82.67-23.42-24.5-15.62-43.79-36.89-57.87-63.84-14.09-26.94-21.12-57.25-21.12-90.94v-438.14c0-13.46,4.28-24.49,12.86-33.07,8.57-8.57,19.59-12.86,33.07-12.86s24.48,4.29,33.07,12.86c8.57,8.58,12.86,19.61,12.86,33.07v438.14c0,24.5,6.73,45.01,20.21,61.54,13.46,16.53,30,24.8,49.6,24.8h31.23c11.02,0,20.35,4.29,28.01,12.86,7.65,8.58,11.48,19.6,11.48,33.07s-5.05,24.5-15.16,33.07c-10.1,8.58-23.12,12.86-39.04,12.86h-16.53Z"/>
    <path class="cls-3" d="m1959.64,943.44c-44.71,0-84.82-11.17-120.33-33.53-35.52-22.35-63.54-52.66-84.04-90.94-20.52-38.26-30.77-81.59-30.77-129.97s11.17-91.85,33.53-130.43c22.35-38.58,52.66-69.03,90.94-91.4,38.26-22.35,81.29-33.53,129.06-33.53s90.62,11.18,128.6,33.53c37.96,22.36,68.11,52.82,90.48,91.4,22.34,38.58,33.53,82.07,33.53,130.43h-35.82c0,48.38-10.26,91.71-30.77,129.97-20.52,38.28-48.54,68.59-84.05,90.94-35.52,22.36-75.64,33.53-120.33,33.53Zm18.37-82.67c31.23,0,59.09-7.49,83.59-22.5,24.49-15,43.77-35.51,57.87-61.54,14.08-26.02,21.13-55.26,21.13-87.72s-7.05-62.6-21.13-88.64c-14.09-26.02-33.38-46.53-57.87-61.54-24.5-15-52.36-22.5-83.59-22.5s-58.33,7.51-83.13,22.5c-24.8,15.01-44.41,35.52-58.79,61.54-14.39,26.04-21.59,55.57-21.59,88.64s7.19,61.7,21.59,87.72c14.38,26.03,33.99,46.54,58.79,61.54,24.8,15.01,52.5,22.5,83.13,22.5Zm205.75,79.91c-13.48,0-24.66-4.43-33.52-13.32-8.89-8.87-13.32-20.05-13.32-33.53v-140.54l17.45-97.37,76.24,33.07v204.83c0,13.48-4.45,24.66-13.32,33.53-8.88,8.88-20.06,13.32-33.53,13.32Z"/>
    <path class="cls-3" d="m2523,943.44c-42.87,0-82.53-6.57-118.95-19.75-36.44-13.16-64.76-29.85-84.97-50.06-9.19-9.79-13.02-20.97-11.48-33.53,1.52-12.54,7.49-22.81,17.91-30.77,12.24-9.79,24.34-13.92,36.28-12.4,11.94,1.54,22.19,6.89,30.77,16.07,10.41,11.64,27.1,22.5,50.06,32.61,22.96,10.1,48.53,15.16,76.7,15.16,35.51,0,62.61-5.81,81.29-17.45,18.67-11.63,28.32-26.64,28.93-45.01.6-18.37-8.12-34.29-26.18-47.76-18.07-13.46-50.98-24.49-98.74-33.07-61.86-12.24-106.71-30.61-134.57-55.11-27.87-24.48-41.79-54.5-41.79-90.02,0-31.23,9.19-57.09,27.56-77.62,18.37-20.51,41.94-35.82,70.73-45.93,28.78-10.1,58.79-15.16,90.02-15.16,40.42,0,76.24,6.43,107.47,19.29,31.23,12.86,56.03,30.63,74.4,53.28,8.57,9.8,12.54,20.06,11.94,30.77-.62,10.72-5.83,19.75-15.62,27.1-9.8,6.75-21.44,8.88-34.9,6.43-13.48-2.44-24.8-7.95-33.99-16.53-15.31-14.7-31.85-24.8-49.6-30.31-17.77-5.51-38.28-8.27-61.54-8.27-26.95,0-49.76,4.59-68.43,13.78-18.69,9.19-28.02,22.66-28.02,40.42,0,11.02,2.9,20.98,8.72,29.85,5.81,8.88,17.29,16.85,34.45,23.88,17.14,7.05,42.26,13.94,75.32,20.67,45.93,9.19,82.21,20.83,108.85,34.9,26.64,14.1,45.77,30.47,57.41,49.14,11.63,18.69,17.45,40.27,17.45,64.76,0,28.17-7.51,53.59-22.51,76.24-15.01,22.66-37.06,40.73-66.13,54.19-29.09,13.48-65.37,20.21-108.85,20.21Z"/>
    <path class="cls-3" d="m2883.99,939.77c-13.48,0-24.34-4.13-32.61-12.4-8.27-8.27-12.4-19.13-12.4-32.61V267.39c0-13.46,4.13-24.34,12.4-32.61,8.27-8.27,19.13-12.4,32.61-12.4s24.34,4.13,32.61,12.4c8.27,8.27,12.4,19.15,12.4,32.61v627.36c0,13.48-4.14,24.34-12.4,32.61-8.26,8.27-19.15,12.4-32.61,12.4Zm43.17-183.71l-56.95-62.46,281.99-251.68c9.19-8.57,19.43-12.54,30.77-11.94,11.33.62,20.97,5.51,28.93,14.7,8.57,9.19,12.54,19.29,11.94,30.31-.62,11.02-5.51,20.82-14.7,29.39l-281.99,251.68Zm284.75,179.12c-9.8,7.95-20.67,11.48-32.61,10.56-11.94-.92-21.9-6.27-29.85-16.07l-186.47-230.55,64.3-60.62,191.06,235.15c7.95,9.8,11.48,20.37,10.56,31.69-.92,11.34-6.59,21.28-16.99,29.85Z"/>
  </g>
</svg>